<svg xmlns="http://www.w3.org/2000/svg" width="177.941" height="177.625" viewBox="0 0 177.941 177.625" data-v-3d770237=""><g id="Group_36174" data-name="Group 36174" transform="translate(-289.867 -679.411)" data-v-3d770237=""><g id="Group_36109" data-name="Group 36109" transform="translate(289.867 679.411)" data-v-3d770237=""><path id="Path_4858" data-name="Path 4858" d="M379.223,857.036a89.232,89.232,0,0,1-73.717-139.563,3.015,3.015,0,1,1,4.964,3.425,82.941,82.941,0,0,0,9.881,105.734c32.406,32.411,85.026,32.515,117.3.246s32.162-84.893-.246-117.3a83.358,83.358,0,0,0-48.935-23.822v90.407a3.016,3.016,0,0,1-3.015,3.015H328.207a3.015,3.015,0,1,1,0-6.03H382.44V682.426a3.016,3.016,0,0,1,3.256-3.005,89.352,89.352,0,0,1,55.972,25.9c34.758,34.755,34.869,91.2.244,125.825A88.349,88.349,0,0,1,379.223,857.036Z" transform="translate(-289.868 -679.411)" fill="#fff" data-v-3d770237=""></path></g></g></svg>