<svg xmlns="http://www.w3.org/2000/svg" width="177" height="177.065" viewBox="0 0 177 177.065" data-v-3d770237=""><g id="Group_36184" data-name="Group 36184" transform="translate(-717 -4710)" data-v-3d770237=""><g id="Group_36119" data-name="Group 36119" transform="translate(-340.18 4190.986)" data-v-3d770237=""><g id="Group_36182" data-name="Group 36182" data-v-3d770237=""><g id="Group_36116" data-name="Group 36116" transform="translate(1057.18 519.014)" data-v-3d770237=""><path id="Path_4863" data-name="Path 4863" d="M1145.68,696.014a88.507,88.507,0,1,1,62.577-25.923A87.916,87.916,0,0,1,1145.68,696.014Zm0-171.591a83.091,83.091,0,1,0,58.782,24.308A82.872,82.872,0,0,0,1145.68,524.423Z" transform="translate(-1057.18 -519.014)" fill="#fff" data-v-3d770237=""></path></g></g> <g id="Group_36117" data-name="Group 36117" transform="translate(1084.467 565.715)" data-v-3d770237=""><path id="Path_4864" data-name="Path 4864" d="M1135.124,671.125a65.3,65.3,0,0,1-47.942-109.564q1-1.089,2.051-2.13a2.684,2.684,0,0,1,3.781,3.809q-.957.95-1.885,1.956a59.926,59.926,0,1,0,49.27-19.082,2.682,2.682,0,0,1-2.444-2.9,2.709,2.709,0,0,1,2.905-2.444,65.3,65.3,0,0,1-3.021,130.3Q1136.479,671.123,1135.124,671.125Z" transform="translate(-1069.887 -540.762)" fill="#fff" data-v-3d770237=""></path></g> <g id="Group_36118" data-name="Group 36118" transform="translate(1120.693 561.554)" data-v-3d770237=""><path id="Path_4865" data-name="Path 4865" d="M1096.919,559.16a10.169,10.169,0,1,1,7.192-2.979A10.1,10.1,0,0,1,1096.919,559.16Zm0-14.967a4.8,4.8,0,0,0-3.393,8.192,4.916,4.916,0,0,0,6.788,0,4.8,4.8,0,0,0-3.395-8.192Z" transform="translate(-1086.757 -538.824)" fill="#fff" data-v-3d770237=""></path></g></g></g></svg>