<svg xmlns="http://www.w3.org/2000/svg" width="177" height="167.892" viewBox="0 0 177 167.892" data-v-3d770237=""><g id="Group_36183" data-name="Group 36183" transform="translate(-716.999 -5058)" data-v-3d770237=""><g id="Group_36115" data-name="Group 36115" transform="translate(238.93 5004.23)" data-v-3d770237=""><g id="Group_36112" data-name="Group 36112" transform="translate(478.069 91.458)" data-v-3d770237=""><path id="Path_4860" data-name="Path 4860" d="M542.925,201.694a65.1,65.1,0,1,1,64.851-65.1A65.052,65.052,0,0,1,542.925,201.694Zm0-124.887a59.785,59.785,0,1,0,59.534,59.785A59.729,59.729,0,0,0,542.925,76.806Z" transform="translate(-478.069 -71.489)" fill="#fff" data-v-3d770237=""></path></g> <g id="Group_36113" data-name="Group 36113" transform="translate(525.364 53.77)" data-v-3d770237=""><path id="Path_4861" data-name="Path 4861" d="M576.417,182.954a2.658,2.658,0,0,1-.479-5.273A59.648,59.648,0,1,0,519.886,157.7a2.658,2.658,0,1,1-4.045,3.448A64.8,64.8,0,1,1,576.9,182.911,2.86,2.86,0,0,1,576.417,182.954Z" transform="translate(-500.305 -53.77)" fill="#fff" data-v-3d770237=""></path></g> <g id="Group_36114" data-name="Group 36114" transform="translate(545.211 160.135)" data-v-3d770237=""><path id="Path_4862" data-name="Path 4862" d="M517.193,118.928a7.575,7.575,0,1,1,7.553-7.576A7.576,7.576,0,0,1,517.193,118.928Zm0-9.833a2.258,2.258,0,1,0,2.235,2.257A2.252,2.252,0,0,0,517.193,109.1Z" transform="translate(-509.636 -103.778)" fill="#fff" data-v-3d770237=""></path></g></g></g></svg>